# xmcd
#
# Track frame offsets:
#	150
#	20072
#	40547
#	63465
#	85577
#	109300
#	130307
#	156560
#	173617
#	197170
#
# Disc length: 2839 seconds
#
# Revision: 1
# Processed by: cddbd v1.5.1PL0 Copyright (c) Steve Scherf et al.
# Submitted via: audiograbber 1.83.01
#
DISCID=830b150a
DTITLE=Darrell Mansfield - Soul'd Out
DYEAR=1900
DGENRE=
TTITLE0=Swing Low
TTITLE1=Have I Told You Lately That I Love You
TTITLE2=Mercy Abundant
TTITLE3=Come This Far
TTITLE4=Amazing Grace
TTITLE5=I Just Want To Know You
TTITLE6=Trouble
TTITLE7=Hold On
TTITLE8=Soon and Very Soon
TTITLE9=Homerun
EXTD=
EXTT0=
EXTT1=
EXTT2=
EXTT3=
EXTT4=
EXTT5=
EXTT6=
EXTT7=
EXTT8=
EXTT9=
PLAYORDER=
